<?xml version="1.0" encoding="UTF-8"?>
<svg width="15px" height="15px" viewBox="0 0 15 15" version="1.1" xmlns="http://www.w3.org/2000/svg" xmlns:xlink="http://www.w3.org/1999/xlink">
    <!-- Generator: Sketch 52.5 (67469) - http://www.bohemiancoding.com/sketch -->
    <title>icon/close/solid</title>
    <desc>Created with Sketch.</desc>
    <defs>
        <path d="M14.25,11.4674203 C14.25,11.7881143 14.1388642,12.0595855 13.9143549,12.2840713 L12.2831196,13.91439 C12.0586103,14.1388758 11.7871107,14.25 11.467129,14.25 C11.1478932,14.25 10.8756477,14.1388758 10.6518843,13.91439 L7.12462706,10.3882478 L3.59811568,13.91439 C3.37435226,14.1388758 3.10210678,14.25 2.7821251,14.25 C2.46139754,14.25 2.19064381,14.1388758 1.96613452,13.91439 L0.335645119,12.2840713 C0.11038995,12.0595855 0,11.7881143 0,11.4674203 C0,11.1482179 0.11038995,10.8760009 0.335645119,10.652261 L3.8621565,7.1261187 L0.335645119,3.59923065 C0.11038995,3.37549066 0,3.10327367 0,2.78332548 C0,2.4633773 0.11038995,2.19190611 0.335645119,1.96742032 L1.96613452,0.336355786 C2.19064381,0.111869995 2.46139754,0 2.7821251,0 C3.10210678,0 3.37435226,0.111869995 3.59811568,0.336355786 L7.12462706,3.86324384 L10.6518843,0.336355786 C10.8756477,0.111869995 11.1478932,0 11.467129,0 C11.7871107,0 12.0586103,0.111869995 12.2831196,0.336355786 L13.9143549,1.96742032 C14.1388642,2.19190611 14.25,2.4633773 14.25,2.78332548 C14.25,3.10327367 14.1388642,3.37549066 13.9143549,3.59923065 L10.3870976,7.1261187 L13.9143549,10.652261 C14.1388642,10.8760009 14.25,11.1482179 14.25,11.4674203" id="path-1"></path>
    </defs>
    <g id="Page-1" stroke="none" stroke-width="1" fill="none" fill-rule="evenodd">
        <g id="kitchen-spin-desktop" transform="translate(-835.000000, -527.000000)">
            <g id="item-expanded" transform="translate(521.000000, 495.000000)">
                <g id="icon/close/solid" transform="translate(312.000000, 30.000000)">
                    <g id="color/ui/dark-gray" transform="translate(2.375000, 2.375000)">
                        <mask id="mask-2" fill="white">
                            <use xlink:href="#path-1"></use>
                        </mask>
                        <use id="Mask" fill="#333333" xlink:href="#path-1"></use>
                        <g id="color/ui/gray" mask="url(#mask-2)" fill="#666666">
                            <g transform="translate(-2.375000, -2.375000)" id="color">
                                <rect x="0" y="0" width="18.8020833" height="18.8020833"></rect>
                            </g>
                        </g>
                    </g>
                </g>
            </g>
        </g>
    </g>
</svg>