<svg xmlns="http://www.w3.org/2000/svg" viewBox="0 0 33.87 32.28"><defs><style>.cls-1{fill:#fff;}</style></defs><title>Microbs</title><g id="Layer_2" data-name="Layer 2"><g id="Layer_1-2" data-name="Layer 1"><g id="Microbs"><path class="cls-1" d="M5.07,10c-2,.9-6.7,3-4.5,5.8,2.9,3.7,12.9.6,13.5,4.6.7,5-8.6,4.2-8.7,9-.1,3.6,5.6,2.8,7.8,2.8,1.2,0,.7-1.4-.3-1.4a14.77,14.77,0,0,1-2.1.1c-1.3.4-2,0-2.3-1.3-1.1-1-.9-1.8.6-2.2,1.4-.9,3-1.4,4.3-2.3,1.6-1.1,3.6-3.2,2.9-5.3s-3.6-2.9-5.6-3c-2.2-.1-6,.8-7.7-1.1-2.1-2.3,1.7-3.7,3.3-4.4.9-.6-.4-1.7-1.2-1.3Z"/><path class="cls-1" d="M33.47,24.2,32,22.9a.76.76,0,0,1,.1-.4l1.8-.8-1.8-.8a.76.76,0,0,0-.1-.4l1.5-1.3-2-.1c-.1-.1-.1-.2-.2-.3l1-1.7-1.9.5-.3-.3.5-1.9-1.7,1c0,.1-.2.1-.3,0l-.1-2-1.3,1.5a.76.76,0,0,1-.4-.1L26,14l-.8,1.8a.76.76,0,0,0-.4.1l-1.3-1.5-.1,2c-.1.1-.2.1-.3.2l-1.7-1,.5,1.9-.3.3-1.9-.5,1,1.7c-.1.1-.1.2-.2.3l-2,.1L20,20.7a.76.76,0,0,1-.1.4l-1.8.8,1.8.8a.76.76,0,0,0,.1.4l-1.5,1.3,2,.1c.1.1.1.2.2.3l-1,1.7,1.9-.5.3.3-.5,1.9,1.7-1c.1.1.2.1.3.2l.1,2,1.3-1.5a.76.76,0,0,1,.4.1l.8,1.8.8-1.8a.76.76,0,0,0,.4-.1l1.3,1.5.1-2c.1-.1.2-.1.3-.2l1.7,1-.5-1.9.3-.3,1.9.5-1-1.7c.1-.1.1-.2.2-.3Z"/><path class="cls-1" d="M18.47,2.1A3.7,3.7,0,0,0,15.37.5a3.9,3.9,0,0,0-3.9,3.9,3.84,3.84,0,0,0,3.9,3.9,4,4,0,0,0,2.6-1,4.64,4.64,0,0,1-.4-2.1A5.61,5.61,0,0,1,18.47,2.1ZM14,3.5a.68.68,0,0,1-.7-.7.7.7,0,0,1,1.4,0A.75.75,0,0,1,14,3.5Zm2.3,2.4a.7.7,0,1,1,.7-.7A.68.68,0,0,1,16.27,5.9Z"/><path class="cls-1" d="M23.17,0A5.16,5.16,0,0,0,18,5.2a5.2,5.2,0,0,0,10.4,0A5.16,5.16,0,0,0,23.17,0Zm-1.4,8.8a.7.7,0,1,1,.7-.7A.75.75,0,0,1,21.77,8.8Zm0-5.3a.68.68,0,0,1-.7-.7.7.7,0,0,1,1.4,0A.75.75,0,0,1,21.77,3.5Zm2.9,2.4a.7.7,0,1,1,.7-.7A.68.68,0,0,1,24.67,5.9Z"/></g></g></g></svg>