<svg xmlns="http://www.w3.org/2000/svg" viewBox="0 0 21.57 23.49"><defs><style>.cls-1{fill:#fff;}</style></defs><title>Phone</title><g id="Layer_2" data-name="Layer 2"><g id="Layer_1-2" data-name="Layer 1"><g id="Phone"><path class="cls-1" d="M0,7.16a7.16,7.16,0,0,1,2.8-5.9,9,9,0,0,0,1-.9,1.53,1.53,0,0,1,2.1.1,10.59,10.59,0,0,1,2.6,4.1,2.19,2.19,0,0,1-.7,2.6c-.5.4-.9.8-1.4,1.2a1.76,1.76,0,0,0-.7,1.9A7,7,0,0,0,7.1,13a17,17,0,0,0,3.5,3.6,3.13,3.13,0,0,0,1,.5,1.84,1.84,0,0,0,2-.4,12,12,0,0,1,1.2-1.1,2.27,2.27,0,0,1,2.8-.3,10.18,10.18,0,0,1,3.5,3,1.56,1.56,0,0,1-.2,2.4,8.49,8.49,0,0,1-3.9,2.5,8.21,8.21,0,0,1-6.5-.9,19,19,0,0,1-5.4-4.4,24,24,0,0,1-4.6-6.8A24.45,24.45,0,0,1,0,7.16Z"/></g></g></g></svg>