<svg xmlns="http://www.w3.org/2000/svg" viewBox="0 0 27.7 19.48"><defs><style>.cls-1{fill:#fff;}</style></defs><title>Dome</title><g id="Layer_2" data-name="Layer 2"><g id="Layer_1-2" data-name="Layer 1"><g id="Dome"><path class="cls-1" d="M1.6,7.4A28.35,28.35,0,0,0,6.7,9.2,18.32,18.32,0,0,1,12.8,0,13.84,13.84,0,0,0,1.6,7.4Z"/><path class="cls-1" d="M7.8,9.5A29.15,29.15,0,0,0,20,9.6c-1.9-5.8-5.2-8.4-6.1-9A17.79,17.79,0,0,0,7.8,9.5Z"/><path class="cls-1" d="M21.1,9.4a23.37,23.37,0,0,0,5-1.9v.1A13.73,13.73,0,0,0,14.9.1C16.4,1.1,19.4,3.9,21.1,9.4Z"/><path class="cls-1" d="M6.4,10.3A28,28,0,0,1,1.1,8.4,13.71,13.71,0,0,0,0,13.8c0,2.1,2.2,3.7,5.3,4.6A36.88,36.88,0,0,1,6.4,10.3Z"/><path class="cls-1" d="M21.3,18.6a29.8,29.8,0,0,0-1-7.9,30.29,30.29,0,0,1-5.9.6,28.44,28.44,0,0,1-6.9-.8,30.28,30.28,0,0,0-1.1,8H5.9a33.31,33.31,0,0,0,16,0Z"/><path class="cls-1" d="M26.6,8.5a27.77,27.77,0,0,1-5.2,2,30.6,30.6,0,0,1,1,8c3.1-.9,5.3-2.5,5.3-4.6A13.35,13.35,0,0,0,26.6,8.5Z"/></g></g></g></svg>