<svg xmlns="http://www.w3.org/2000/svg" viewBox="0 0 18.8 25.6"><defs><style>.cls-1{fill:#fff;}</style></defs><title>Food</title><g id="Layer_2" data-name="Layer 2"><g id="Layer_1-2" data-name="Layer 1"><g id="Food"><path class="cls-1" d="M6.5,18.7v6.9H3.9V18.7C.2,18.3,0,15.6,0,15.1V2A.92.92,0,0,1,.9,1a1,1,0,0,1,.9,1V12.3a.47.47,0,0,0,.5.5.47.47,0,0,0,.5-.5V2a.92.92,0,0,1,.9-1,1,1,0,0,1,.9,1V12.3a.47.47,0,0,0,.5.5.47.47,0,0,0,.5-.5V2a.92.92,0,0,1,.9-1,1,1,0,0,1,.9,1V12.3a.5.5,0,0,0,1,0V2a.92.92,0,0,1,.9-1,1,1,0,0,1,.9,1V15.1C10.4,15.6,10.2,18.3,6.5,18.7Z"/><path class="cls-1" d="M16.2,25.5V20.2h-.5a2.09,2.09,0,0,1-2.1-2v-.1l.5-16A2.11,2.11,0,0,1,16.2,0h.5a2.05,2.05,0,0,1,2.1,2.1V25.4H16.2Z"/></g></g></g></svg>