<svg xmlns="http://www.w3.org/2000/svg" viewBox="0 0 33.83 17.01"><defs><style>.cls-1{fill:#fff;}</style></defs><title>Glasses</title><g id="Layer_2" data-name="Layer 2"><g id="Layer_1-2" data-name="Layer 1"><path id="Glasses" class="cls-1" d="M16.92,12.24c-1,1.3-1.9,2.5-2.7,3.7a2,2,0,0,1-2.1,1h-6A4.77,4.77,0,0,1,1,12.64c-.4-2.6-.7-5.3-1-7.9-.1-1.3.2-1.7,1.5-2,3.9-.9,7.8-1.7,11.7-2.6.8-.2,1.6-.3,2,.6a7.35,7.35,0,0,1,0,2.1H19a1.76,1.76,0,0,1-.4-.5c-.1-.6-.3-1.3,0-1.6a1.72,1.72,0,0,1,1.5-.6l12.4,2.7a1.46,1.46,0,0,1,1.3,1.8c-.4,2.9-.7,5.8-1.1,8.7a4.34,4.34,0,0,1-4.4,3.6q-3.45.15-6.9,0a2.4,2.4,0,0,1-1.6-.9C18.82,14.84,17.92,13.54,16.92,12.24ZM3.12,5.74c.3,2.2.5,4.2.8,6.3v.4a2,2,0,0,0,2,1.6H11a1.72,1.72,0,0,0,1.6-.8c.9-1.4,2-2.7,3-4s1.8-1.3,2.8,0,2,2.8,3.1,4.1a2,2,0,0,0,1.2.6c1.8.1,3.5,0,5.3,0,1,0,1.8-.4,1.9-1.4.4-2.3.6-4.6.9-7C21.52,5.74,12.42,5.74,3.12,5.74Z"/></g></g></svg>