<svg xmlns="http://www.w3.org/2000/svg" viewBox="0 0 25.9 23.4"><defs><style>.cls-1{fill:#fff;}</style></defs><title>People</title><g id="Layer_2" data-name="Layer 2"><g id="Layer_1-2" data-name="Layer 1"><g id="People"><path class="cls-1" d="M25.9,17.2V15.9c-.3-.7-.4-1.5-.7-2.2a8,8,0,0,0-3.7-4.2c-.3-.2-.3-.3-.1-.6,2.3-2.5,1.8-6.7-1-8.3A8.8,8.8,0,0,0,18.9.1h-1a.35.35,0,0,0-.2.1A4.9,4.9,0,0,0,14,4.8v.3a5.88,5.88,0,0,1,4.4,4.1,6.82,6.82,0,0,1-.8,5.9,8.38,8.38,0,0,1,2.1,2.1h6.2Z"/><path class="cls-1" d="M8.4,15.1a6.77,6.77,0,0,1-.9-5.6,5.66,5.66,0,0,1,4-4.3c.2,0,.3-.1.5-.1V5A5.25,5.25,0,0,0,9.4.5C9,.2,8.4.2,8,0H7.1A6.25,6.25,0,0,0,4.9,1a5.44,5.44,0,0,0-.4,7.8c.2.2.4.4,0,.6A8.31,8.31,0,0,0,.1,16.1a.75.75,0,0,1-.1.5v.3c.1,0,.2.1.3.1h6A10,10,0,0,1,8.4,15.1Z"/><path class="cls-1" d="M16,15.6c-.3-.2-.2-.3,0-.5a5.34,5.34,0,0,0,1.2-5.5A4.45,4.45,0,0,0,13,6.3a3.59,3.59,0,0,0-1.1.2A4.32,4.32,0,0,0,8.8,9.9a5.42,5.42,0,0,0,1.3,5.3c.2.2.3.3,0,.5-2.9,1.6-4.2,4.2-4.5,7.4v.3H20.7c-.2-.8-.2-1.6-.4-2.4A9.33,9.33,0,0,0,16,15.6Z"/></g></g></g></svg>