<svg xmlns="http://www.w3.org/2000/svg" viewBox="0 0 33.5 25"><defs><style>.cls-1{fill:#fff;}</style></defs><title>Satellite</title><g id="Layer_2" data-name="Layer 2"><g id="Layer_1-2" data-name="Layer 1"><path id="Satellite" class="cls-1" d="M23.4,13l-1.2,1.9-1.8-1.2,3.1-4.8-2-1.3,1.1-1.7L20.3,4.4,19.2,6.1l-2-1.3L14.1,9.6,12.3,8.4l1.2-1.9L3.5,0,0,5.4l10,6.5L11.2,10,13,11.2,9.7,16.5,16,20.6l3.4-5.2,1.8,1.2L20,18.5,30,25l3.5-5.4ZM9.7,10.6,1.5,5.3,3.9,1.7,12.1,7ZM29.5,23.5l-8.2-5.3,2.4-3.6,8.2,5.3Z"/></g></g></svg>