<svg xmlns="http://www.w3.org/2000/svg" viewBox="0 0 30 30"><defs><style>.cls-1{fill:#fff;}</style></defs><title>Mars</title><g id="Layer_2" data-name="Layer 2"><g id="Layer_1-2" data-name="Layer 1"><path id="Mars" class="cls-1" d="M15,0A15,15,0,1,0,30,15,15,15,0,0,0,15,0ZM6,17.4c-1.3,0-2.4-.7-2.4-1.5S4.7,14.4,6,14.4s2.4.7,2.4,1.5S7.3,17.4,6,17.4Zm6.2,8.3c-.9,0-1.7-.5-1.7-1.1s.8-1.1,1.7-1.1,1.7.5,1.7,1.1S13.1,25.7,12.2,25.7ZM14.1,6.6c0-.8,1.5-1.5,3.4-1.5s3.4.7,3.4,1.5-1.5,1.5-3.4,1.5S14.1,7.5,14.1,6.6Zm6.7,12.9c-1.2,0-2.2-.6-2.2-1.4s1-1.4,2.2-1.4,2.2.6,2.2,1.4S22,19.5,20.8,19.5Z"/></g></g></svg>