<svg xmlns="http://www.w3.org/2000/svg" viewBox="0 0 23.5 29.22"><defs><style>.cls-1{fill:#fff;}</style></defs><title>Rocks</title><g id="Layer_2" data-name="Layer 2"><g id="Layer_1-2" data-name="Layer 1"><g id="Rocks"><path class="cls-1" d="M.1,8.5H0c.1-.1.3-.2.4-.3a2,2,0,0,0,.8-.8,8.2,8.2,0,0,1,1.7-2A8.28,8.28,0,0,1,4.4,4.3l1.5-.6A3.13,3.13,0,0,0,7,2.8c.5-.7.9-1.4,1.5-2.1A1.91,1.91,0,0,1,9.9,0a7.37,7.37,0,0,1,1.4.4c.2.1.5.1.7.2a3,3,0,0,1,.8.4,6.08,6.08,0,0,1,1.8.9,7.1,7.1,0,0,1,1.4,1l.5.5a2.7,2.7,0,0,1,.7.8,8.16,8.16,0,0,0,1.1,1.7,7.41,7.41,0,0,1,1.2,1.3,1.61,1.61,0,0,1,.3.9c-.1.6-.3,1.2-.4,1.8l-.3,1.5a10.93,10.93,0,0,1-.5,1.7L18,15.8a2.07,2.07,0,0,1-.6,1,3.49,3.49,0,0,1-1.3.5,4.71,4.71,0,0,1-1.6.4.9.9,0,0,1-.5-.1,6.37,6.37,0,0,0-.7-.2,3.81,3.81,0,0,0-1.5.1c-.5.1-.8.3-1.3.1a8.79,8.79,0,0,1-1-.6,11.11,11.11,0,0,0-1.6-.7,5.26,5.26,0,0,0-1.8-.4,9.85,9.85,0,0,0-1.7.2,1.69,1.69,0,0,1-1-.3c-.2-.1-.3-.2-.5-.3s-.5-.3-.7-.5a5.24,5.24,0,0,1-1-1.1,1.67,1.67,0,0,1-.4-1.1,1.42,1.42,0,0,1,.2-.6,2,2,0,0,0,.1-.7c0-.2.1-.3.1-.5a1.27,1.27,0,0,0-.1-.6,2.09,2.09,0,0,0-.4-.6L.4,9.2C.3,9,.3,8.8.2,8.7s-.1-.1,0-.2H.4C.2,8.2.1,8.6.1,8.5Z"/><path class="cls-1" d="M15.8,19.8h0l.1-.1.3-.3a5.55,5.55,0,0,1,.6-.8,2.09,2.09,0,0,1,.6-.4l.6-.3a1.38,1.38,0,0,0,.4-.3,5.55,5.55,0,0,1,.6-.8.6.6,0,0,1,.6-.3,1.42,1.42,0,0,1,.6.2.37.37,0,0,1,.3.1c.1,0,.2.1.3.1a2.51,2.51,0,0,1,.7.4,1,1,0,0,1,.5.4l.2.2.3.3a3.11,3.11,0,0,0,.4.6c.2.2.4.3.5.5a.37.37,0,0,1,.1.3,1.85,1.85,0,0,1-.2.7c0,.2-.1.4-.1.6a2.54,2.54,0,0,1-.2.7c-.1.4-.1.7-.2,1.1,0,.2-.1.3-.3.4s-.4.1-.5.2-.4.1-.6.2h-.2a.37.37,0,0,1-.3-.1h-.6c-.2,0-.3.1-.5,0a.76.76,0,0,0-.4-.2l-.6-.3a1.7,1.7,0,0,0-.7-.1,1.7,1.7,0,0,0-.7.1c-.1,0-.3-.1-.4-.1s-.1-.1-.2-.1-.2-.1-.3-.2l-.4-.4c-.1-.1-.2-.3-.1-.4s0-.2.1-.2v-.7a.35.35,0,0,0-.1-.2.37.37,0,0,1-.1-.3,2.81,2.81,0,0,1-.1-.5Z"/><path class="cls-1" d="M.9,24.1h0c0-.1.1-.1.2-.2s.3-.3.5-.4l.9-1.2c.3-.2.5-.5.9-.6s.5-.3.8-.4.4-.3.6-.5c.3-.4.5-.8.8-1.2a1.23,1.23,0,0,1,.8-.4,2.35,2.35,0,0,1,.8.2c.1,0,.3.1.4.1s.3.1.4.2a4.67,4.67,0,0,1,1,.5c.2.2.6.3.8.6l.3.3c.2.1.3.3.4.4a7,7,0,0,0,.6.9c.2.3.5.5.7.8a.44.44,0,0,1,.1.5c-.1.4-.2.7-.3,1.1s-.1.6-.2.8-.2.6-.3,1a8.33,8.33,0,0,1-.4,1.5,2.09,2.09,0,0,1-.4.6c-.2.2-.5.2-.8.3a2.92,2.92,0,0,1-.9.2.37.37,0,0,1-.3-.1c-.1,0-.3-.1-.4-.1a2,2,0,0,0-.8.1c-.3.1-.5.2-.7,0s-.4-.3-.6-.4a3.55,3.55,0,0,0-.9-.4,3.55,3.55,0,0,0-1-.2c-.3,0-.7.1-1,.1a1.42,1.42,0,0,1-.6-.2c-.1-.1-.2-.1-.3-.2s-.3-.2-.4-.3L1,26.9a.62.62,0,0,1-.2-.7c0-.1.1-.2.1-.4v-.4c0-.1.1-.2,0-.3a.37.37,0,0,0-.1-.3c0-.1-.1-.2-.2-.3s-.1-.2-.2-.4-.1-.2-.1-.3-.1,0,0-.1H.4C1,23.9.9,24.2.9,24.1Z"/></g></g></g></svg>